<svg id="Logo" xmlns="http://www.w3.org/2000/svg" width="932" height="315" viewBox="0 0 932 315">
  <defs>
    <style>
      .cls-1, .cls-2, .cls-3, .cls-4, .cls-5 {
        fill-rule: evenodd;
        stroke-linejoin: round;
      }

      .cls-6 {
        fill-rule: evenodd;
      }

      .cls-1 {
        fill: #005a9c;
        stroke: #005a9c;
      }

      .cls-2 {
        fill: #0066b0;
        stroke: #0066b0;
      }

      .cls-3 {
        fill: #0076cc;
        stroke: #0076cc;
      }

      .cls-4 {
        fill: #0086e8;
        stroke: #0086e8;
      }

      .cls-5 {
        fill: #0093ff;
        stroke: #0093ff;
      }
    </style>
  </defs>
  <path id="Triangle_4" data-name="Triangle 4" class="cls-4" d="m298.4 134.84-24.6-42.609h49.269z"/>
  <path id="Triangle_5" data-name="Triangle 5" class="cls-5" d="m298.4 49.619-24.6 42.609h49.269z"/>
  <path id="Triangle_3" data-name="Triangle 3" class="cls-3" d="m249.2 220.06-49.2-85.218 98.4-8.1e-4z"/>
  <path id="Triangle_2" data-name="Triangle 2" class="cls-2" d="m249.2 49.619-49.2 85.218 98.4-8.1e-4z"/>
  <path id="Triangle_1" data-name="Triangle 1" class="cls-1" d="m150.8 220.06-98.4-170.44h196.8z"/>
  <path id="WebGPU" class="cls-6" d="M397.927,170a46.383,46.383,0,0,0-5.459-22.594A39.579,39.579,0,0,0,376.929,131.7a46.217,46.217,0,0,0-23.182-5.711,47.758,47.758,0,0,0-23.77,5.8,40.1,40.1,0,0,0-16.042,16.547q-5.714,10.752-5.712,25.029t5.88,25.114a41.6,41.6,0,0,0,16.21,16.714,46.512,46.512,0,0,0,23.434,5.88q16.461,0,27.55-8.315a39.574,39.574,0,0,0,14.782-21.586H379.617a24.465,24.465,0,0,1-9.323,12.347q-6.639,4.621-16.547,4.619a29.643,29.643,0,0,1-20.578-7.643q-8.484-7.642-9.323-21.25h73.577a89.923,89.923,0,0,0,.5-9.239h0Zm-15.791-3.192H324.014q1.173-13.1,9.323-20.494a28.334,28.334,0,0,1,19.738-7.391,32.751,32.751,0,0,1,14.7,3.275,25.147,25.147,0,0,1,10.5,9.575,28.21,28.21,0,0,1,3.863,15.035h0Zm51.235-22.174V95.246H418.084V219.554h15.287V202.588a35.4,35.4,0,0,0,13.523,13.27,40.941,40.941,0,0,0,20.914,5.208,41.875,41.875,0,0,0,37.964-23.014,52.851,52.851,0,0,0,5.712-24.862q0-14.111-5.712-24.777a41.653,41.653,0,0,0-15.622-16.547,42.965,42.965,0,0,0-22.342-5.879,40.763,40.763,0,0,0-20.662,5.207,36.146,36.146,0,0,0-13.775,13.439h0Zm62.49,28.557a38.312,38.312,0,0,1-4.2,18.4,29.535,29.535,0,0,1-11.338,11.927,30.887,30.887,0,0,1-15.707,4.115,30.558,30.558,0,0,1-15.539-4.115,30.072,30.072,0,0,1-11.422-11.927,40.557,40.557,0,0,1,0-36.285,30.092,30.092,0,0,1,11.422-11.927,30.578,30.578,0,0,1,15.539-4.115,31.4,31.4,0,0,1,15.707,4.031,29.1,29.1,0,0,1,11.338,11.759,37.449,37.449,0,0,1,4.2,18.142h0ZM638.647,136.4a52.884,52.884,0,0,0-20.914-26.038q-14.362-9.236-33.009-9.239a59.092,59.092,0,0,0-29.733,7.643,55.959,55.959,0,0,0-21.25,21.334,61.09,61.09,0,0,0-7.812,30.826,60.623,60.623,0,0,0,7.812,30.741,56.1,56.1,0,0,0,21.25,21.25,59.062,59.062,0,0,0,29.733,7.643,56.956,56.956,0,0,0,28.053-6.971A56.042,56.042,0,0,0,633.1,194.608a58.17,58.17,0,0,0,9.071-26.457V156.392H579.181v12.431h46.7q-1.849,17.472-12.935,27.717t-28.221,10.247a43.634,43.634,0,0,1-22.09-5.627,39.861,39.861,0,0,1-15.454-16.043q-5.631-10.413-5.628-24.189t5.628-24.274a39.769,39.769,0,0,1,15.454-16.127,43.654,43.654,0,0,1,22.09-5.627,40.52,40.52,0,0,1,21.5,5.627A36.445,36.445,0,0,1,620.337,136.4h18.31Zm101.967,0.336q0-15.118-10.332-24.694t-30.153-9.575h-37.8V219.554h15.286V170.671h22.51q20.493,0,30.489-9.659t10-24.274h0Zm-40.485,21.334h-22.51v-43h22.51q24.859,0,24.862,21.67,0,10.248-6.047,15.79t-18.815,5.544h0Zm59.13-55.6v73.913q0,14.614,5.795,24.61a36.391,36.391,0,0,0,15.791,14.866,54.05,54.05,0,0,0,44.852,0,36.911,36.911,0,0,0,15.874-14.866q5.878-9.993,5.88-24.61V102.469H832.164V176.55q0,15.623-7.643,23.182t-21.082,7.559q-13.606,0-21.25-7.559t-7.643-23.182V102.469H759.259Z"/>
</svg>
