<svg id="Logo" xmlns="http://www.w3.org/2000/svg" xmlns:xlink="http://www.w3.org/1999/xlink" width="768" height="768" viewBox="0 0 768 768">
  <defs>
    <style>
     .cls-1, .cls-2, .cls-3, .cls-4, .cls-5 {
        fill-rule: evenodd;
        stroke-linejoin: round;
      }

      .cls-6 {
        fill-rule: evenodd;
      }

      .cls-1 {
        fill: #005a9c;
        stroke: #005a9c;
      }

      .cls-2 {
        fill: #0066b0;
        stroke: #0066b0;
      }

      .cls-3 {
        fill: #0076cc;
        stroke: #0076cc;
      }

      .cls-4 {
        fill: #0086e8;
        stroke: #0086e8;
      }

      .cls-5 {
        fill: #0093ff;
        stroke: #0093ff;
      }

      @media (prefers-color-scheme: dark) {
        .cls-6 {
          fill: #eeeeee;
        }
      }
    </style>
  </defs>
  <path id="Triangle_4" data-name="Triangle 4" class="cls-4" d="m626.63 295.5-60.189-104.25h120.55z"/>
  <path id="Triangle_5" data-name="Triangle 5" class="cls-5" d="m626.63 87.001-60.189 104.25h120.55z"/>
  <path id="Triangle_3" data-name="Triangle 3" class="cls-3" d="m506.26 504-120.38-208.5 240.76-2e-3z"/>
  <path id="Triangle_2" data-name="Triangle 2" class="cls-2" d="m506.26 87-120.38 208.5 240.76-2e-3z"/>
  <path id="Triangle_1" data-name="Triangle 1" class="cls-1" d="m265.5 504-240.76-417h481.51z"/>
  <path id="WebGPU" class="cls-6" d="M168.627,547.469l-25.7,98.943-26.877-98.943H98.913L70.692,646.748,45.158,547.469H28.864L61.621,664.722l16.966-.168,28.221-94.239,27.214,94.239h17.134l33.933-117.085H168.627ZM285.879,615a46.371,46.371,0,0,0-5.459-22.594A39.572,39.572,0,0,0,264.881,576.7a46.213,46.213,0,0,0-23.181-5.711,47.756,47.756,0,0,0-23.77,5.8,40.093,40.093,0,0,0-16.043,16.547q-5.712,10.752-5.711,25.029t5.879,25.114a41.6,41.6,0,0,0,16.211,16.714,46.506,46.506,0,0,0,23.434,5.88q16.461,0,27.549-8.315a39.581,39.581,0,0,0,14.783-21.586H267.569a24.459,24.459,0,0,1-9.323,12.347q-6.637,4.621-16.546,4.619a29.643,29.643,0,0,1-20.579-7.643q-8.484-7.643-9.323-21.25h73.578a90.2,90.2,0,0,0,.5-9.239h0Zm-15.79-3.192H211.966q1.174-13.1,9.323-20.494a28.334,28.334,0,0,1,19.739-7.391,32.747,32.747,0,0,1,14.7,3.275,25.141,25.141,0,0,1,10.5,9.575,28.211,28.211,0,0,1,3.864,15.035h0Zm51.234-22.174V540.246H306.037V664.554h15.286V647.588a35.4,35.4,0,0,0,13.523,13.27,40.944,40.944,0,0,0,20.914,5.208,41.878,41.878,0,0,0,37.965-23.014,52.85,52.85,0,0,0,5.711-24.862q0-14.111-5.711-24.777A41.656,41.656,0,0,0,378.1,576.866a42.963,42.963,0,0,0-22.342-5.879,40.769,40.769,0,0,0-20.662,5.207,36.153,36.153,0,0,0-13.775,13.439h0Zm62.491,28.557a38.312,38.312,0,0,1-4.2,18.395,29.538,29.538,0,0,1-11.339,11.927,30.881,30.881,0,0,1-15.707,4.115,30.554,30.554,0,0,1-15.538-4.115,30.081,30.081,0,0,1-11.423-11.927,40.557,40.557,0,0,1,0-36.285,30.1,30.1,0,0,1,11.423-11.927,30.574,30.574,0,0,1,15.538-4.115,31.392,31.392,0,0,1,15.707,4.031,29.1,29.1,0,0,1,11.339,11.759,37.449,37.449,0,0,1,4.2,18.142h0ZM526.6,581.4a52.873,52.873,0,0,0-20.914-26.038q-14.363-9.236-33.008-9.239a59.1,59.1,0,0,0-29.734,7.643,55.966,55.966,0,0,0-21.25,21.334,64.565,64.565,0,0,0,0,61.567,56.107,56.107,0,0,0,21.25,21.25,59.068,59.068,0,0,0,29.734,7.643,56.956,56.956,0,0,0,28.053-6.971,56.039,56.039,0,0,0,20.326-18.983,58.146,58.146,0,0,0,9.071-26.457V601.392H467.133v12.431h46.7Q511.982,631.3,500.9,641.54t-28.221,10.247a43.637,43.637,0,0,1-22.091-5.627,39.867,39.867,0,0,1-15.454-16.043q-5.629-10.413-5.627-24.189t5.627-24.274a39.775,39.775,0,0,1,15.454-16.127,43.657,43.657,0,0,1,22.091-5.627,40.519,40.519,0,0,1,21.5,5.627A36.439,36.439,0,0,1,508.289,581.4H526.6Zm101.967,0.336q0-15.119-10.331-24.694t-30.153-9.575h-37.8V664.554h15.287V615.671h22.51q20.493,0,30.489-9.659t10-24.274h0Zm-40.484,21.334h-22.51v-43h22.51q24.858,0,24.861,21.67,0,10.248-6.047,15.79t-18.814,5.544h0Zm59.129-55.6v73.913q0,14.615,5.8,24.61a36.383,36.383,0,0,0,15.79,14.866,54.05,54.05,0,0,0,44.852,0,36.913,36.913,0,0,0,15.875-14.866Q735.4,636,735.4,621.382V547.469H720.117V621.55q0,15.623-7.644,23.182t-21.082,7.559q-13.606,0-21.25-7.559T662.5,621.55V547.469H647.211Z"/>
</svg>
